<svg width="70" height="50" viewBox="0 0 70 50" fill="none" xmlns="http://www.w3.org/2000/svg">
<path d="M8.13972 10.8205C-10.3432 33.849 49.6508 65.3607 66.6189 37.1816C83.5869 9.00253 -4.28323 -15.2372 1.4737 15.6685" stroke="#4CAF50" stroke-width="2"/>
<path d="M38.9368 26.3676C38.9368 23.7756 37.0168 22.4956 34.7448 22.4956C33.0488 22.4956 31.6088 22.9436 29.6888 24.3836L27.7368 22.9436L29.5288 12.3516H40.9528V15.4556H32.1848L31.1928 20.7356C32.1208 19.9996 33.8168 19.5516 35.0968 19.5516C38.9688 19.5516 42.1688 21.8876 42.1688 26.3676C42.1688 30.7196 38.9688 33.5676 34.1368 33.5676C31.2248 33.5676 28.4408 31.7436 27.0648 28.9276C27.6408 28.5756 29.2728 27.6476 29.8488 27.3276C30.7128 29.2156 32.3128 30.3676 34.1368 30.3676C37.3688 30.3676 38.9368 28.5436 38.9368 26.3676Z" fill="#1E1E1E"/>
</svg>
