<svg width="70" height="50" viewBox="0 0 70 50" fill="none" xmlns="http://www.w3.org/2000/svg">
<path d="M8.13972 10.635C-10.3432 33.6634 49.6508 65.1751 66.6189 36.9961C83.5869 8.81698 -4.28323 -15.4227 1.4737 15.483" stroke="#4CAF50" stroke-width="2"/>
<path d="M40.6305 33.062H27.5425V31.494L36.0545 21.254C36.9185 20.23 37.4945 19.206 37.4945 18.086C37.4945 16.294 35.9905 15.078 34.0385 15.078C32.2465 15.078 30.7425 16.326 30.4865 18.278L27.3505 17.606C27.9265 14.054 30.6785 11.846 34.1025 11.846C37.7825 11.846 40.7585 14.374 40.7585 18.086C40.7585 20.134 39.8625 21.958 38.4865 23.462C36.0865 26.278 35.6065 26.79 33.0465 29.862H40.6305V33.062Z" fill="#1E1E1E"/>
</svg>
