<svg width="70" height="50" viewBox="0 0 70 50" fill="none" xmlns="http://www.w3.org/2000/svg">
<path d="M8.13972 10.6967C-10.3432 33.7252 49.6508 65.2369 66.6189 37.0578C83.5869 8.87875 -4.28323 -15.3609 1.4737 15.5448" stroke="#4CAF50" stroke-width="2"/>
<path d="M33.8168 23.5238H31.4808V20.4838H33.8168C35.4808 20.4838 36.3448 19.1398 36.5048 18.1158C36.6328 17.1878 36.4088 16.0038 34.9688 15.3958C34.4888 15.1718 34.0088 15.1718 33.5288 15.1718C32.2488 15.1398 31.3208 15.7478 30.5848 16.8038L28.0888 14.9798C29.2408 12.9638 31.5768 11.7478 34.2328 11.9078C37.7208 12.0678 40.1208 14.7558 40.1208 17.6998C40.1208 19.3638 39.0968 20.9318 37.5928 21.8278C39.7368 22.5958 40.9528 25.0918 40.9528 27.2998C40.9528 31.1718 37.8168 33.4438 33.6568 33.4438C30.3928 33.4438 27.9608 31.6198 26.8408 29.2198L29.7208 27.6838C30.3288 29.0598 32.2168 30.2438 33.6568 30.2438H33.6248C36.3128 30.2438 37.5608 28.8358 37.5608 27.0438C37.5608 25.3798 36.2808 23.5238 33.8168 23.5238Z" fill="#1E1E1E"/>
</svg>
